<mxfile host="Electron" agent="Mozilla/5.0 (X11; Linux x86_64) AppleWebKit/537.36 (KHTML, like Gecko) draw.io/27.0.5 Chrome/134.0.6998.205 Electron/35.4.0 Safari/537.36" version="27.0.5">
  <diagram name="Page-1" id="hWWK36qAOoNUz55XNOuj">
    <mxGraphModel dx="987" dy="629" grid="1" gridSize="10" guides="1" tooltips="1" connect="1" arrows="1" fold="1" page="1" pageScale="1" pageWidth="850" pageHeight="1100" math="0" shadow="0">
      <root>
        <mxCell id="0" />
        <mxCell id="1" parent="0" />
        <mxCell id="gxq8JhidaslcDoTPTs4e-2" value="&lt;font style=&quot;font-size: 10px;&quot;&gt;&lt;u&gt;:MyWaze UI&lt;/u&gt;&lt;/font&gt;&lt;div&gt;&lt;font style=&quot;font-size: 10px;&quot;&gt;&amp;lt;&amp;lt;interface&amp;gt;&amp;gt;&lt;/font&gt;&lt;/div&gt;" style="shape=umlLifeline;perimeter=lifelinePerimeter;whiteSpace=wrap;html=1;container=1;dropTarget=0;collapsible=0;recursiveResize=0;outlineConnect=0;portConstraint=eastwest;newEdgeStyle={&quot;edgeStyle&quot;:&quot;elbowEdgeStyle&quot;,&quot;elbow&quot;:&quot;vertical&quot;,&quot;curved&quot;:0,&quot;rounded&quot;:0};" parent="1" vertex="1">
          <mxGeometry x="280" y="220" width="100" height="500" as="geometry" />
        </mxCell>
        <mxCell id="gxq8JhidaslcDoTPTs4e-12" value="" style="html=1;points=[[0,0,0,0,5],[0,1,0,0,-5],[1,0,0,0,5],[1,1,0,0,-5]];perimeter=orthogonalPerimeter;outlineConnect=0;targetShapes=umlLifeline;portConstraint=eastwest;newEdgeStyle={&quot;curved&quot;:0,&quot;rounded&quot;:0};" parent="gxq8JhidaslcDoTPTs4e-2" vertex="1">
          <mxGeometry x="45" y="90" width="10" height="100" as="geometry" />
        </mxCell>
        <mxCell id="gxq8JhidaslcDoTPTs4e-9" value="" style="html=1;points=[[0,0,0,0,5],[0,1,0,0,-5],[1,0,0,0,5],[1,1,0,0,-5]];perimeter=orthogonalPerimeter;outlineConnect=0;targetShapes=umlLifeline;portConstraint=eastwest;newEdgeStyle={&quot;curved&quot;:0,&quot;rounded&quot;:0};" parent="gxq8JhidaslcDoTPTs4e-2" vertex="1">
          <mxGeometry x="-165" y="90" width="10" height="380" as="geometry" />
        </mxCell>
        <mxCell id="gxq8JhidaslcDoTPTs4e-11" value="Request POI" style="html=1;verticalAlign=bottom;endArrow=block;curved=0;rounded=0;" parent="gxq8JhidaslcDoTPTs4e-2" edge="1">
          <mxGeometry width="80" relative="1" as="geometry">
            <mxPoint x="-155" y="110" as="sourcePoint" />
            <mxPoint x="45.000000000000114" y="110" as="targetPoint" />
          </mxGeometry>
        </mxCell>
        <mxCell id="O8nxHAHAz7iZDsRK6rxr-1" value="displayPOIList(list&amp;lt;POI&amp;gt;)" style="html=1;verticalAlign=bottom;endArrow=block;endSize=8;curved=0;rounded=0;" parent="gxq8JhidaslcDoTPTs4e-2" edge="1">
          <mxGeometry relative="1" as="geometry">
            <mxPoint x="45" y="180" as="sourcePoint" />
            <mxPoint x="-155" y="180" as="targetPoint" />
          </mxGeometry>
        </mxCell>
        <mxCell id="gxq8JhidaslcDoTPTs4e-14" value="&lt;code data-end=&quot;893&quot; data-start=&quot;860&quot;&gt;queryPOI(coords,filters)&lt;/code&gt;" style="html=1;verticalAlign=bottom;endArrow=block;curved=0;rounded=0;" parent="gxq8JhidaslcDoTPTs4e-2" edge="1">
          <mxGeometry width="80" relative="1" as="geometry">
            <mxPoint x="55" y="120" as="sourcePoint" />
            <mxPoint x="255" y="120" as="targetPoint" />
          </mxGeometry>
        </mxCell>
        <mxCell id="gxq8JhidaslcDoTPTs4e-15" value="returnPOIList(list&amp;lt;POI&amp;gt;)" style="html=1;verticalAlign=bottom;endArrow=open;dashed=1;endSize=8;curved=0;rounded=0;" parent="gxq8JhidaslcDoTPTs4e-2" edge="1">
          <mxGeometry relative="1" as="geometry">
            <mxPoint x="255" y="150" as="sourcePoint" />
            <mxPoint x="55" y="150" as="targetPoint" />
          </mxGeometry>
        </mxCell>
        <mxCell id="gxq8JhidaslcDoTPTs4e-17" value="addStop(selectedPOI)" style="html=1;verticalAlign=bottom;endArrow=block;curved=0;rounded=0;" parent="gxq8JhidaslcDoTPTs4e-2" edge="1">
          <mxGeometry width="80" relative="1" as="geometry">
            <mxPoint x="-155" y="260" as="sourcePoint" />
            <mxPoint x="45.000000000000114" y="260" as="targetPoint" />
          </mxGeometry>
        </mxCell>
        <mxCell id="O8nxHAHAz7iZDsRK6rxr-3" value="showRoute(updatedRoute)" style="html=1;verticalAlign=bottom;endArrow=block;dashed=1;endSize=8;curved=0;rounded=0;" parent="gxq8JhidaslcDoTPTs4e-2" edge="1">
          <mxGeometry relative="1" as="geometry">
            <mxPoint x="45" y="310" as="sourcePoint" />
            <mxPoint x="-155" y="310" as="targetPoint" />
            <mxPoint as="offset" />
          </mxGeometry>
        </mxCell>
        <mxCell id="gxq8JhidaslcDoTPTs4e-21" value="" style="html=1;points=[[0,0,0,0,5],[0,1,0,0,-5],[1,0,0,0,5],[1,1,0,0,-5]];perimeter=orthogonalPerimeter;outlineConnect=0;targetShapes=umlLifeline;portConstraint=eastwest;newEdgeStyle={&quot;curved&quot;:0,&quot;rounded&quot;:0};" parent="gxq8JhidaslcDoTPTs4e-2" vertex="1">
          <mxGeometry x="45" y="240" width="10" height="80" as="geometry" />
        </mxCell>
        <mxCell id="O8nxHAHAz7iZDsRK6rxr-2" value="updatedRoute" style="html=1;verticalAlign=bottom;endArrow=open;dashed=1;endSize=8;curved=0;rounded=0;" parent="gxq8JhidaslcDoTPTs4e-2" edge="1">
          <mxGeometry relative="1" as="geometry">
            <mxPoint x="435" y="290" as="sourcePoint" />
            <mxPoint x="55" y="290" as="targetPoint" />
          </mxGeometry>
        </mxCell>
        <mxCell id="gxq8JhidaslcDoTPTs4e-3" value="&lt;font style=&quot;font-size: 10px;&quot;&gt;&lt;u&gt;:POIService&lt;/u&gt;&lt;/font&gt;&lt;div&gt;&lt;span style=&quot;font-size: 10px;&quot;&gt;&amp;lt;&amp;lt;control&amp;gt;&amp;gt;&lt;/span&gt;&lt;/div&gt;" style="shape=umlLifeline;perimeter=lifelinePerimeter;whiteSpace=wrap;html=1;container=1;dropTarget=0;collapsible=0;recursiveResize=0;outlineConnect=0;portConstraint=eastwest;newEdgeStyle={&quot;edgeStyle&quot;:&quot;elbowEdgeStyle&quot;,&quot;elbow&quot;:&quot;vertical&quot;,&quot;curved&quot;:0,&quot;rounded&quot;:0};" parent="1" vertex="1">
          <mxGeometry x="490" y="220" width="100" height="500" as="geometry" />
        </mxCell>
        <mxCell id="gxq8JhidaslcDoTPTs4e-13" value="" style="html=1;points=[[0,0,0,0,5],[0,1,0,0,-5],[1,0,0,0,5],[1,1,0,0,-5]];perimeter=orthogonalPerimeter;outlineConnect=0;targetShapes=umlLifeline;portConstraint=eastwest;newEdgeStyle={&quot;curved&quot;:0,&quot;rounded&quot;:0};" parent="gxq8JhidaslcDoTPTs4e-3" vertex="1">
          <mxGeometry x="45" y="110" width="10" height="50" as="geometry" />
        </mxCell>
        <mxCell id="gxq8JhidaslcDoTPTs4e-4" value="" style="endArrow=none;dashed=1;html=1;rounded=0;" parent="1" source="gxq8JhidaslcDoTPTs4e-9" edge="1">
          <mxGeometry width="50" height="50" relative="1" as="geometry">
            <mxPoint x="120" y="520" as="sourcePoint" />
            <mxPoint x="120" y="270" as="targetPoint" />
          </mxGeometry>
        </mxCell>
        <mxCell id="gxq8JhidaslcDoTPTs4e-6" value="User" style="shape=umlActor;verticalLabelPosition=bottom;verticalAlign=top;html=1;outlineConnect=0;" parent="1" vertex="1">
          <mxGeometry x="110" y="210" width="20" height="40" as="geometry" />
        </mxCell>
        <mxCell id="gxq8JhidaslcDoTPTs4e-10" value="" style="endArrow=none;dashed=1;html=1;rounded=0;" parent="1" target="gxq8JhidaslcDoTPTs4e-9" edge="1">
          <mxGeometry width="50" height="50" relative="1" as="geometry">
            <mxPoint x="120" y="720" as="sourcePoint" />
            <mxPoint x="120" y="270" as="targetPoint" />
          </mxGeometry>
        </mxCell>
        <mxCell id="gxq8JhidaslcDoTPTs4e-18" value="route:Route" style="shape=umlLifeline;perimeter=lifelinePerimeter;whiteSpace=wrap;html=1;container=1;dropTarget=0;collapsible=0;recursiveResize=0;outlineConnect=0;portConstraint=eastwest;newEdgeStyle={&quot;curved&quot;:0,&quot;rounded&quot;:0};" parent="1" vertex="1">
          <mxGeometry x="670" y="220" width="100" height="500" as="geometry" />
        </mxCell>
        <mxCell id="gxq8JhidaslcDoTPTs4e-19" value="" style="html=1;points=[[0,0,0,0,5],[0,1,0,0,-5],[1,0,0,0,5],[1,1,0,0,-5]];perimeter=orthogonalPerimeter;outlineConnect=0;targetShapes=umlLifeline;portConstraint=eastwest;newEdgeStyle={&quot;curved&quot;:0,&quot;rounded&quot;:0};" parent="gxq8JhidaslcDoTPTs4e-18" vertex="1">
          <mxGeometry x="45" y="255" width="10" height="50" as="geometry" />
        </mxCell>
        <mxCell id="O8nxHAHAz7iZDsRK6rxr-5" value="loop" style="shape=umlFrame;whiteSpace=wrap;html=1;pointerEvents=0;width=60;height=15;" parent="1" vertex="1">
          <mxGeometry x="100" y="290" width="460" height="140" as="geometry" />
        </mxCell>
        <mxCell id="O8nxHAHAz7iZDsRK6rxr-6" value="[redefinePOI = true]" style="text;html=1;align=center;verticalAlign=middle;resizable=0;points=[];autosize=1;strokeColor=none;fillColor=none;fontSize=11;" parent="1" vertex="1">
          <mxGeometry x="150" y="288" width="120" height="30" as="geometry" />
        </mxCell>
        <mxCell id="O8nxHAHAz7iZDsRK6rxr-7" value="alt" style="shape=umlFrame;whiteSpace=wrap;html=1;pointerEvents=0;width=60;height=15;" parent="1" vertex="1">
          <mxGeometry x="100" y="440" width="660" height="220" as="geometry" />
        </mxCell>
        <mxCell id="gxq8JhidaslcDoTPTs4e-22" value="updateRoute(selectedPOI)" style="html=1;verticalAlign=bottom;endArrow=block;curved=0;rounded=0;" parent="1" edge="1">
          <mxGeometry x="-0.0263" width="80" relative="1" as="geometry">
            <mxPoint x="335" y="490" as="sourcePoint" />
            <mxPoint x="715" y="490" as="targetPoint" />
            <mxPoint as="offset" />
          </mxGeometry>
        </mxCell>
        <mxCell id="wNIv11jXcrE7RdXEOpcR-1" value="" style="endArrow=none;dashed=1;html=1;dashPattern=1 3;strokeWidth=2;rounded=0;exitX=-0.005;exitY=0.479;exitDx=0;exitDy=0;exitPerimeter=0;entryX=1.001;entryY=0.474;entryDx=0;entryDy=0;entryPerimeter=0;" edge="1" parent="1">
          <mxGeometry width="50" height="50" relative="1" as="geometry">
            <mxPoint x="96.04000000000005" y="571.1000000000001" as="sourcePoint" />
            <mxPoint x="759.9999999999999" y="570" as="targetPoint" />
          </mxGeometry>
        </mxCell>
        <mxCell id="wNIv11jXcrE7RdXEOpcR-2" value="" style="html=1;points=[[0,0,0,0,5],[0,1,0,0,-5],[1,0,0,0,5],[1,1,0,0,-5]];perimeter=orthogonalPerimeter;outlineConnect=0;targetShapes=umlLifeline;portConstraint=eastwest;newEdgeStyle={&quot;curved&quot;:0,&quot;rounded&quot;:0};" vertex="1" parent="1">
          <mxGeometry x="325" y="610" width="10" height="20" as="geometry" />
        </mxCell>
        <mxCell id="wNIv11jXcrE7RdXEOpcR-3" value="cancelPOISearch()" style="html=1;verticalAlign=bottom;endArrow=block;curved=0;rounded=0;" edge="1" parent="1">
          <mxGeometry width="80" relative="1" as="geometry">
            <mxPoint x="125" y="619.71" as="sourcePoint" />
            <mxPoint x="325.0000000000001" y="619.71" as="targetPoint" />
          </mxGeometry>
        </mxCell>
        <mxCell id="wNIv11jXcrE7RdXEOpcR-4" value="[addStop]" style="text;html=1;align=center;verticalAlign=middle;resizable=0;points=[];autosize=1;strokeColor=none;fillColor=none;fontSize=11;" vertex="1" parent="1">
          <mxGeometry x="150" y="435" width="70" height="30" as="geometry" />
        </mxCell>
        <mxCell id="wNIv11jXcrE7RdXEOpcR-5" value="[cancel]" style="text;html=1;align=center;verticalAlign=middle;resizable=0;points=[];autosize=1;strokeColor=none;fillColor=none;fontSize=11;" vertex="1" parent="1">
          <mxGeometry x="135" y="565" width="60" height="30" as="geometry" />
        </mxCell>
      </root>
    </mxGraphModel>
  </diagram>
</mxfile>
